<svg version="1" xmlns="http://www.w3.org/2000/svg" width="346.667" height="346.667" viewBox="0 0 260.000000 260.000000"><path d="M105.5 6c-25.9 5.3-47.9 17.3-66.3 36.4C15.7 66.8 4 95.8 4 130c0 35.6 12.9 66.2 38.4 90.8C66.8 244.3 95.8 256 130 256c34.3 0 63.1-11.6 87.6-35.2 25.4-24.5 38.4-55.3 38.5-90.8 0-35.4-13.1-66.2-38.5-90.8-18.4-17.8-38.9-28.4-63.9-33.3-13-2.5-35.5-2.5-48.2.1zm45.4 8.5c23.9 4.6 42.6 14.3 60.3 31.3 23.9 23 35.8 51 35.8 84.2 0 33.1-11.9 61-35.6 84.1-22.9 22.2-49.5 32.9-81.4 32.9-31.9 0-58.5-10.7-81.4-32.9C24.9 191 13 163.1 13 130c0-33.2 11.9-61.2 35.8-84.2 23-22.1 48.6-32.6 80.3-32.7 8.5-.1 16.8.5 21.8 1.4z"/><path d="M66 38v4h10v24h9V42h9v-8H66v4zM100.1 36.2c-.4 1.3-1.8 5-3.1 8.3-1.2 3.3-3.5 9.5-5.1 13.7L89.1 66H94c4.5 0 5-.3 5.6-2.5.6-2.3 1.1-2.5 5.9-2.5 4.8 0 5.3.2 5.9 2.5.6 2.4.9 2.5 9.9 2.5h9.2l2.3-4c1.2-2.2 2.7-4 3.2-4s1.9 1.8 3 4c2 3.9 2.1 4 7.5 4 3 0 5.5-.2 5.5-.5s-2.2-3.9-5-8c-2.7-4.1-5-7.7-5-8 0-.3 1.8-3.3 4-6.5 6.1-8.9 6.1-9 .2-9-4.9 0-5.2.2-7.3 4-1.3 2.2-2.5 4-2.8 4-.3 0-1.5-1.7-2.6-3.8-1.9-3.5-2.3-3.7-7.4-4-6.3-.4-6.3-.2.2 9.1l4.4 6.2-4.8 6.9c-4.1 5.8-5 6.6-5.6 5-.4-1-2.8-7.5-5.4-14.4l-4.7-12.5-4.6-.3c-4-.3-4.7 0-5.5 2zm7.8 16.5c.1.7-1 1.3-2.4 1.3-2.9 0-2.9 0-1.3-5.3l1.2-4 1.2 3.4c.7 1.9 1.3 4 1.3 4.6zM154 50v16h9V34h-9v16zM171.1 35.4c-2.8 1.5-5 5.2-5.1 8.3 0 3.6 4.1 7.2 11 9.6 6.6 2.2 8.3 4.3 4.5 5.7-2.6 1-6.5-.5-6.5-2.5 0-1.1-1.2-1.5-5-1.5-5 0-5 0-4.4 2.7 1.9 7.8 12 11.6 21.1 7.8 4.7-2 6.2-4.1 6.3-9.1 0-5.6-1.6-7.3-9.6-9.9-4.4-1.4-7-2.8-7.2-3.9-.5-2.6 5.8-2.2 6.5.4.4 1.6 1.4 2 4.9 2 4.1 0 4.4-.2 4.4-2.6 0-1.5-1.2-3.8-2.9-5.5-2.6-2.6-3.6-2.9-9.3-2.9-3.5.1-7.4.7-8.7 1.4zM118.7 78.7c-.4.3-.7 2.8-.7 5.5V89h-9.5c-9.9 0-13.4 1-16.7 4.6-.9 1.1-4.2 8.3-7.3 16.1-5 12.4-6 14.3-8.6 15.4-1.7.6-4.1 2.8-5.5 4.8-2.3 3.5-2.4 4.1-2.4 22.8V172h9v5.5c0 6.4 2 11.9 4.8 13.4 3.9 2.1 9.7 1.3 12.6-1.5 2.3-2.4 2.6-3.4 2.6-10V172h66v6c0 9.9 3.1 14 10.8 14 3.3 0 4.5-.6 6.6-3.1 2.3-2.6 2.6-4 2.6-10V172h10v-38.5l-3.1-3.8c-1.7-2.1-4.3-4.4-5.8-5.1-2.1-1.1-3.6-3.6-6.5-11.3-9.2-23.5-10-24.3-25-24.3H143v-3.9c0-7.1 0-7.1-12.4-7.1-6.2 0-11.6.3-11.9.7zm41.5 21.5c1.2 1.1 4 7.6 9.3 21.8.5 1.3-4.2 1.5-39 1.2-21.7-.1-39.5-.5-39.5-.7 0-1.6 7.6-20.3 8.8-21.8 1.4-1.5 4.1-1.7 30.2-1.7 21.4 0 29 .3 30.2 1.2zm-41.7 34.5c1.2 1.2 1.5 2.6 1.1 5.2-.7 4.9-3.7 7.1-9.6 7.1h-4.7l.8-4.8c1.7-9.5 1.5-9.2 6.3-9.2 2.8 0 5.1.6 6.1 1.7zm16.2 0c.4 1-.2 2.3-1.5 3.3-1.8 1.5-1.9 2-.8 2.9.7.6 2 .9 2.8.6 1-.4 1.3.2 1.2 2.2-.1 2.7-.2 2.8-6.7 3.1-5.6.3-6.8 0-7.4-1.4-.4-1.2.2-2.5 2-4 1.7-1.4 2.5-2.9 2.1-3.9-.4-.8-.1-2.2.6-3 1.7-2.1 6.9-1.9 7.7.2zm20.1-.5c1.3 1.7-.3 5.8-2.3 5.8-1.9 0-1.9.7 0 2.6 2.1 2.1 1.9 4.4-.4 4.4-1.1 0-2.3-1.2-3.1-3-.7-1.7-1.9-3-2.6-3-.9 0-1.4 1.1-1.4 3 0 2.3-.4 3-2 3-2.3 0-2.3.4-.9-7.7l1.1-6.3h5.3c3 0 5.7.5 6.3 1.2zm-61.7 2.7c3.1 3.1 3.6 5.5 1.8 9.4-2.1 4.7-8 6-12.3 2.6-4.3-3.4-3.3-11.9 1.7-13.9 3.8-1.5 5.8-1.1 8.8 1.9zm85 0c3.7 3.8 3.9 8.2.4 11.6-6.7 6.8-17.1-2-12.4-10.6 2.3-4.5 8-4.9 12-1zm-63.1 14c0 .5-.9 1.1-2 1.4-1.6.4-2 1.4-2 4.6 0 2.3-.4 4.1-1 4.1-.5 0-1-1.8-1-4.1 0-3.2-.4-4.2-2-4.6-3.7-1-2-2.3 3-2.3 2.8 0 5 .4 5 .9zm9.3 4.4c2 4.8 1.7 7.1-.5 4.9-1.5-1.5-5.5-1.6-6-.1-.2.7-.9 1-1.5.8-.7-.3-.3-2.2 1-5.7 2.5-6.5 4.3-6.5 7 .1zm7.3-3.6c1.3 1.7 1.5 1.7 2.8 0 1.4-1.8 3.6-2.3 3.6-.8 0 .5-.7 1.4-1.5 2.1-.8.7-1.5 1.8-1.5 2.5s.7 1.8 1.5 2.5 1.5 1.6 1.5 2.1c0 1.5-2.2 1-3.6-.9-1.3-1.6-1.5-1.6-2.8 0-1.2 1.7-3.6 2.5-3.6 1.3 0-.3.7-1.6 1.6-3 1.4-2.2 1.4-2.6-.1-4.9-2-3-.1-3.7 2.1-.9zm11.4 3.8c0 3-.4 5.5-1 5.5-.5 0-1-2.5-1-5.5s.5-5.5 1-5.5c.6 0 1 2.5 1 5.5zm11-4.5c.8.5 1.1 1.2.7 1.7-.4.4-1.6.2-2.6-.4-1.8-1.1-3.1-.8-3.1.8 0 .4 1.3 1 2.9 1.4 3.5.8 4.6 2.9 2.5 5-2 1.9-5.8 1.9-7.4 0-1-1.2-1-1.5.2-1.5.8 0 1.9.5 2.6 1.2.9.9 1.5.9 2.3.1 1.5-1.5.3-3.3-2-3.3-1 0-2.5-.7-3.2-1.6-2.4-2.9 3.5-5.7 7.1-3.4z"/><path d="M111 136.9c-1.5 2.9-1.3 8.1.4 8.1 3.9 0 6.5-8.1 3-9.4-2.2-.8-2.2-.8-3.4 1.3zM129.4 135.5c-.4.9-.4 1.8-.2 2.1.9.8 3.9-.8 3.5-1.9-.6-1.8-2.7-2-3.3-.2zM126.4 142.5c-.7 1.8.3 3.5 2.1 3.5 2.1 0 2.8-1.9 1.5-3.5-1.6-1.9-2.9-1.9-3.6 0zM146.7 135.6c-1.7 1.8-.6 3.5 2.1 3.2 1.6-.2 2.7-.9 2.7-1.8 0-1.6-3.6-2.6-4.8-1.4zM119.6 154.6c-.9 2.2-.8 2.4.9 2.4.8 0 1.5-.9 1.5-2 0-2.4-1.5-2.7-2.4-.4zM25 134.4c-7.5 1-8.5 1.3-8.4 3.1.1 1.1.5 5 .9 8.7.7 6.8.7 6.8 3.7 6.8h3l-.4-5.4c-.5-6.2-1.3-5.7 11.5-7.2 5.8-.6 5.8-.7 5.5-3.8-.3-2.8-.6-3.1-3.8-3.2-1.9-.1-7.3.3-12 1zM222.7 137.1c-3.2 1.8-4.7 6.3-6.2 17.9-.1.8-1.6 4.4-3.3 8-4.8 10.3-5 9.8 5.6 14.1 13.2 5.4 12.7 5.3 14 2.4 1.7-3.8 1.6-4.2-2.3-5.6-3.8-1.4-4.1-2-2.5-4.9.9-1.6 1.8-1.9 5.4-1.4 3.9.6 4.4.4 4.9-1.7.4-1.3.7-2.7.7-3.1 0-.9-5.9-2.8-9.1-2.8-1.6 0-2.9-.5-2.9-1 0-1.3.7-1.3 7.1.1 6.2 1.3 6.5 1 7.5-7.8.8-7.6-.6-11.8-4.7-13.8-3.2-1.7-11.6-1.9-14.2-.4zm11.5 7.6c1.9 1.7 2.3 4 1 6.1-1.4 2.1-11.2-.4-11.2-2.8 0-4.5 6.5-6.6 10.2-3.3zm-11.8 19.2c.4.5.2 2.1-.3 3.4-.7 1.9-1.5 2.4-3 2-1.9-.5-1.9-.7-.5-3.4 1.5-2.9 2.8-3.6 3.8-2zM30.1 151.6c-5.7 1.9-10.6 3.6-10.8 3.8-.2.2.8 4.5 2.4 9.6 2.8 9.1 2.8 9.1 5.7 8.5 1.6-.3 3.1-.7 3.3-.8.2-.2-.6-3-1.7-6.2s-1.8-6-1.5-6.3c1.3-1.3 3.3 1.1 4.5 5.3 1.2 4.3 1.5 4.6 3.9 4 1.4-.4 2.8-.8 3-1 .2-.2-.4-2.5-1.3-5.1-1.9-5.8-2-6.4-.3-6.4 1 0 4.7 8.7 4.7 11.1 0 .3-3.6 2.2-7.9 4.4l-7.9 3.8 1.5 3.3 1.6 3.3 3.8-2c2.1-1 4-1.9 4.2-1.9.3 0-.4 1.8-1.5 4-2.6 5.2-1.8 10.3 2.3 14.1 1.6 1.5 2.9 3.1 2.9 3.7 0 .5.7 1.5 1.5 2.2 1.1.9 2 .8 4.2-.7 5.2-3.6 5.8-3.6 2.3.1-2.7 2.9-3.2 4-2.4 5.3 2.3 3.7 4 3.8 7.2.2 3-3.3 3-3.4 5.1-1.5 2.7 2.4 2.6 2.8-.6 6.6l-2.6 3.2 2.5 2.4 2.5 2.5 6.1-6.5c6.4-6.9 7.3-7.4 9-5.3.8 1 0 3.2-3.3 8.7l-4.4 7.4 2.7 1.8c1.5 1 2.9 1.8 3.2 1.8.3 0 2.2-2.8 4.3-6.2 5.7-9.7 5.2-9.1 7.4-7.8 1.9 1.2 1.9 1.3.1 4.9-2.8 5.3-1.9 11.7 2.1 15.3 2.6 2.3 4.1 2.8 8.2 2.8 4.3 0 5.5-.5 8-3l3-2.9-.7 4.9-.7 5h3.7c3.4 0 3.6-.2 3.7-3.3.1-1.7.4-4.3.8-5.6.6-2.2.9-1.7 3.1 3.7 2.4 5.9 3.7 7.1 8.1 7.2 1.4 0 1.9-1.9 2.9-10.3.6-5.6 1.4-10.9 1.6-11.8.3-1.2-.4-1.8-2.7-2.3-1.8-.3-3.4-.5-3.6-.3-.2.2-.7 3.1-1.1 6.3l-.7 5.9-2.9-6.8c-2.7-6.3-3.1-6.7-6.2-6.7-1.8 0-3.6.5-3.9 1-.4.6-1.4.1-2.5-1.3-2.5-3.1-7.2-5-11-4.5-1.9.3-3 0-3-.8 0-.6-3.3-3.1-7.2-5.4-4-2.4-8.5-5.4-10-6.8l-2.7-2.5-2.6 3.1c-2.6 3.1-2.7 3.1-5 1.4-3-2.1-3-2.4 0-6l2.4-2.9-2.4-2.3c-2.1-2-2.7-2.1-4.2-.9-1.5 1.2-1.6 1.2-1-.3 2-5.4-4.7-13.8-11.1-13.8l-3.7-.1 3-1.6c1.7-.8 3.1-1.7 3.3-1.8.2-.1-.8-2.7-2.1-5.6-1.4-3-3.4-8.4-4.7-12.2-1.2-3.7-2.5-6.7-2.8-6.6-.4.1-5.4 1.6-11.1 3.5zM52 185.1c.7 1.1.9 2.7.6 3.5-.3.8.2 2.6 1 4 .9 1.3 1.5 2.7 1.2 3-.3.2-1.7-1.4-3.2-3.6-2.9-4.4-3.4-4.6-6.1-2.6-1.6 1.2-1.7 1.6-.6 3 1.7 2.1-.2 2.1-2.3 0-2.2-2.1-2-4.3.6-7.1 2.8-2.9 7.3-3.1 8.8-.2zm48.8 38.3c.6 3-.7 6.5-2.8 7.6-2.8 1.5-5.9.3-6.6-2.5-.6-2.5 1.8-8 3.8-8.8 1.8-.6 5.2 1.7 5.6 3.7zM204.6 179.2c-.9 1.2-1.6 2.8-1.6 3.4 0 .6 2.4 4.4 5.3 8.5l5.2 7.4-4.1 3.8-4.1 3.7-.7-5.2c-.3-2.9-.6-6.7-.6-8.4 0-1.7-.8-3.8-1.8-4.7-1.7-1.6-2.2-1.3-7.8 4.4-6 6.2-14.2 12.3-22.6 16.9l-4.7 2.6 3 6.9c3.5 8.3 3.6 10.1.8 11-2.8.9-3.9-.5-7.4-8.8-2.2-5.4-3.1-6.7-4.4-6.1-.9.3-2.4.9-3.3 1.1-1 .3-1.8 1-1.8 1.5 0 .6-.7.7-1.6.4-1.7-.6-14.4 1.3-15.6 2.3-.4.4.2 5.9 1.5 12.2l2.2 11.5 7.6-1.4c8.5-1.5 11.9-3.8 11.9-8v-2.6l1.5 2.1c3 4.3 11.2 3.8 16.3-.9 2.8-2.7 2.9-8 .3-14l-1.8-4.4 4-2.9 4-2.9-.6 2.5c-1.6 5.9-1.9 15.4-.5 17.3 1.4 1.8 1.9 1.6 10.4-4.2 9-6 27.4-23.8 27.4-26.3 0-.8-.4-2.1-.9-2.8-1.5-2.3 2.5-7.2 5.2-6.6 1.7.5 2.6-.1 4-2.5 1.4-2.3 1.5-3.1.5-3.5-1.7-.6-22.1-5.5-23-5.5-.4 0-1.4 1-2.2 2.2zm11.1 6.6c.7.4.8 1.3.4 2-.6.9-1.2.7-2.6-.8-1.4-1.5-1.5-2-.4-2 .8 0 1.9.4 2.6.8zm-17.4 19.8l.6 7.1-4.6 3.2c-2.5 1.8-4.7 3.1-4.9 2.9-.2-.2.1-3.5.7-7.3.9-5.6 1.7-7.6 4.2-10.2 1.7-1.8 3.1-3.2 3.2-3 .1.1.5 3.4.8 7.3zm-48.7 20.3c-.4.6-1.8 1.1-3.2 1.1-3.1 0-3.2-2.7-.1-3.2 2.6-.5 4.2.6 3.3 2.1zm8.7 1c.3 1.4.1 1.8-.9 1.4-1.5-.6-1.8-1.6-.7-2.6.9-1 1-.9 1.6 1.2zm-5.7 6.2c.8 1.4-1.4 2.9-4.3 2.9-1.6 0-2.3-.6-2.3-2 0-1.5.7-2 2.9-2 1.7 0 3.3.5 3.7 1.1z"/></svg>